{
    "asset": {
        "generator": "Khronos glTF Blender I/O v1.8.19",
        "version": "2.0"
    },
    "scene": 0,
    "scenes": [
        {
            "name": "Scene",
            "nodes": [0, 1, 2, 3]
        }
    ],
    "nodes": [
        {
            "mesh": 0,
            "name": "Body"
        },
        {
            "mesh": 1,
            "name": "Back Pack",
            "scale": [
                0.800000011920929, 0.800000011920929, 0.10000002384185791
            ],
            "translation": [0, 0.05000000074505806, -1.100000023841858]
        },
        {
            "mesh": 2,
            "name": "Left Foot",
            "scale": [
                0.19999998807907104, 0.10000000149011612, 0.19999998807907104
            ],
            "translation": [
                0.5499999523162842, -1.100000023841858, 0.20000001788139343
            ]
        },
        {
            "mesh": 3,
            "name": "Right Foot",
            "scale": [
                0.19999998807907104, 0.10000000149011612, 0.19999998807907104
            ],
            "translation": [
                -0.5500000715255737, -1.100000023841858, 0.20000001788139343
            ]
        }
    ],
    "materials": [
        {
            "doubleSided": true,
            "name": "Player Texture",
            "pbrMetallicRoughness": {
                "baseColorTexture": {
                    "index": 0
                },
                "metallicFactor": 0,
                "roughnessFactor": 0
            }
        }
    ],
    "meshes": [
        {
            "name": "Cube.001",
            "primitives": [
                {
                    "attributes": {
                        "POSITION": 0,
                        "NORMAL": 1,
                        "TEXCOORD_0": 2
                    },
                    "indices": 3,
                    "material": 0
                }
            ]
        },
        {
            "name": "Cube.002",
            "primitives": [
                {
                    "attributes": {
                        "POSITION": 4,
                        "NORMAL": 5,
                        "TEXCOORD_0": 6
                    },
                    "indices": 3,
                    "material": 0
                }
            ]
        },
        {
            "name": "Cube.003",
            "primitives": [
                {
                    "attributes": {
                        "POSITION": 7,
                        "NORMAL": 8,
                        "TEXCOORD_0": 9
                    },
                    "indices": 3,
                    "material": 0
                }
            ]
        },
        {
            "name": "Cube.004",
            "primitives": [
                {
                    "attributes": {
                        "POSITION": 10,
                        "NORMAL": 11,
                        "TEXCOORD_0": 12
                    },
                    "indices": 3,
                    "material": 0
                }
            ]
        }
    ],
    "textures": [
        {
            "sampler": 0,
            "source": 0
        }
    ],
    "images": [
        {
            "mimeType": "image/jpeg",
            "name": "player",
            "uri": "../textures/defaults/player.jpg"
        }
    ],
    "accessors": [
        {
            "bufferView": 0,
            "componentType": 5126,
            "count": 24,
            "max": [1, 1, 1],
            "min": [-1, -1, -1],
            "type": "VEC3"
        },
        {
            "bufferView": 1,
            "componentType": 5126,
            "count": 24,
            "type": "VEC3"
        },
        {
            "bufferView": 2,
            "componentType": 5126,
            "count": 24,
            "type": "VEC2"
        },
        {
            "bufferView": 3,
            "componentType": 5123,
            "count": 36,
            "type": "SCALAR"
        },
        {
            "bufferView": 4,
            "componentType": 5126,
            "count": 24,
            "max": [1, 1, 1],
            "min": [-1, -1, -1],
            "type": "VEC3"
        },
        {
            "bufferView": 5,
            "componentType": 5126,
            "count": 24,
            "type": "VEC3"
        },
        {
            "bufferView": 6,
            "componentType": 5126,
            "count": 24,
            "type": "VEC2"
        },
        {
            "bufferView": 7,
            "componentType": 5126,
            "count": 24,
            "max": [1, 1, 1],
            "min": [-1, -1, -1],
            "type": "VEC3"
        },
        {
            "bufferView": 8,
            "componentType": 5126,
            "count": 24,
            "type": "VEC3"
        },
        {
            "bufferView": 9,
            "componentType": 5126,
            "count": 24,
            "type": "VEC2"
        },
        {
            "bufferView": 10,
            "componentType": 5126,
            "count": 24,
            "max": [1, 1, 1],
            "min": [-1, -1, -1],
            "type": "VEC3"
        },
        {
            "bufferView": 11,
            "componentType": 5126,
            "count": 24,
            "type": "VEC3"
        },
        {
            "bufferView": 12,
            "componentType": 5126,
            "count": 24,
            "type": "VEC2"
        }
    ],
    "bufferViews": [
        {
            "buffer": 0,
            "byteLength": 288,
            "byteOffset": 0
        },
        {
            "buffer": 0,
            "byteLength": 288,
            "byteOffset": 288
        },
        {
            "buffer": 0,
            "byteLength": 192,
            "byteOffset": 576
        },
        {
            "buffer": 0,
            "byteLength": 72,
            "byteOffset": 768
        },
        {
            "buffer": 0,
            "byteLength": 288,
            "byteOffset": 840
        },
        {
            "buffer": 0,
            "byteLength": 288,
            "byteOffset": 1128
        },
        {
            "buffer": 0,
            "byteLength": 192,
            "byteOffset": 1416
        },
        {
            "buffer": 0,
            "byteLength": 288,
            "byteOffset": 1608
        },
        {
            "buffer": 0,
            "byteLength": 288,
            "byteOffset": 1896
        },
        {
            "buffer": 0,
            "byteLength": 192,
            "byteOffset": 2184
        },
        {
            "buffer": 0,
            "byteLength": 288,
            "byteOffset": 2376
        },
        {
            "buffer": 0,
            "byteLength": 288,
            "byteOffset": 2664
        },
        {
            "buffer": 0,
            "byteLength": 192,
            "byteOffset": 2952
        }
    ],
    "samplers": [
        {
            "magFilter": 9728,
            "minFilter": 9984
        }
    ],
    "buffers": [
        {
            "byteLength": 3144,
            "uri": "player.bin"
        }
    ]
}
